<svg id="Capa_1" data-name="Capa 1" xmlns="http://www.w3.org/2000/svg" width="512" height="451.67" viewBox="0 0 512 451.67"><defs><style>.cls-1{fill:#fc0d1b;}.cls-2{fill:#fff;}</style></defs><title>health</title><path class="cls-1" d="M383,10c70.3,0,118.75,59,118.75,128.91,0,96.67-105.15,180.69-246,302.76C114.9,319.6,9.75,235.58,9.75,138.91,9.75,69,58.2,10,128.5,10c90.25,0,127.25,82.92,127.25,82.92S292.75,10,383,10Z"/><polygon class="cls-2" points="351.75 201.67 351.75 261.67 285.75 261.67 285.75 327.67 225.75 327.67 225.75 261.67 159.75 261.67 159.75 201.67 225.75 201.67 225.75 135.67 285.75 135.67 285.75 201.67 351.75 201.67"/><path d="M383.25,0c-39.63,0-75.79,15.36-104.57,44.42A177.3,177.3,0,0,0,256,72.64a177.34,177.34,0,0,0-22.68-28.21C204.54,15.36,168.38,0,128.75,0,52.89,0,0,63.46,0,138.91,0,240.83,108,326.64,249.45,449.23a10,10,0,0,0,13.1,0C404.33,326.35,512,240.69,512,138.91c0-37-12.62-71.56-35.54-97.32C452.59,14.77,419.49,0,383.25,0ZM256,428.44C122.43,312.86,20,229.84,20,138.91,20,71.12,66.75,20,128.75,20c34.42,0,64.66,12.79,89.87,38a149.09,149.09,0,0,1,28.26,39h0a10,10,0,0,0,9.11,5.9h0a10,10,0,0,0,9.12-5.9,149.11,149.11,0,0,1,28.26-39c25.21-25.22,55.45-38,89.87-38C445.25,20,492,71.12,492,138.91,492,231.89,382.81,318.71,256,428.44Z"/><path d="M352,191.67H296v-56a10,10,0,0,0-10-10H226a10,10,0,0,0-10,10v56H160a10,10,0,0,0-10,10v60a10,10,0,0,0,10,10h56v56a10,10,0,0,0,10,10h60a10,10,0,0,0,10-10v-56h56a10,10,0,0,0,10-10v-60A10,10,0,0,0,352,191.67Zm-10,60H286a10,10,0,0,0-10,10v56H236v-56a10,10,0,0,0-10-10H170v-40h56a10,10,0,0,0,10-10v-56h40v56a10,10,0,0,0,10,10h56v40Z"/></svg>